<?xml version="1.0" encoding="iso-8859-1"?>
<!-- Generator: Adobe Illustrator 16.2.0, SVG Export Plug-In . SVG Version: 6.00 Build 0)  -->
<!DOCTYPE svg PUBLIC "-//W3C//DTD SVG 1.1//EN" "http://www.w3.org/Graphics/SVG/1.1/DTD/svg11.dtd">
<svg version="1.1" id="Layer_1" xmlns="http://www.w3.org/2000/svg" xmlns:xlink="http://www.w3.org/1999/xlink" x="0px" y="0px"
	 width="30px" height="30px" viewBox="0 0 30 30" style="enable-background:new 0 0 30 30;" xml:space="preserve">
<g>
	<g>
		<path style="fill:#010101;" d="M24,13h-2V8h-5V6h6c0.553,0,1,0.448,1,1V13z"/>
	</g>
	<g>
		<path style="fill:#010101;" d="M8,13H6V7c0-0.552,0.448-1,1-1h6v2H8V13z"/>
	</g>
	<g>
		<path style="fill:#010101;" d="M13,24H7c-0.552,0-1-0.447-1-1v-6h2v5h5V24z"/>
	</g>
	<g>
		<path style="fill:#010101;" d="M23,24h-6v-2h5v-5h2v6C24,23.553,23.553,24,23,24z"/>
	</g>
</g>
</svg>
