<?xml version="1.0" encoding="iso-8859-1"?>
<!-- Generator: Adobe Illustrator 16.2.0, SVG Export Plug-In . SVG Version: 6.00 Build 0)  -->
<!DOCTYPE svg PUBLIC "-//W3C//DTD SVG 1.1//EN" "http://www.w3.org/Graphics/SVG/1.1/DTD/svg11.dtd">
<svg version="1.1" xmlns="http://www.w3.org/2000/svg" xmlns:xlink="http://www.w3.org/1999/xlink" x="0px" y="0px" width="30px"
	 height="30px" viewBox="0 0 30 30" style="enable-background:new 0 0 30 30;" xml:space="preserve">
<g id="reload">
	<path d="M29.049,8.24l-7.964-1.264l-1.269,7.964l3.626-2.631c0.272,0.851,0.433,1.751,0.433,2.692c0,4.894-3.981,8.875-8.875,8.875
		S6.125,19.894,6.125,15S10.106,6.125,15,6.125c1.445,0,2.808,0.354,4.015,0.971l1.566-2.001C18.931,4.163,17.029,3.625,15,3.625
		C8.718,3.625,3.625,8.718,3.625,15S8.718,26.375,15,26.375S26.375,21.282,26.375,15c0-1.494-0.296-2.917-0.82-4.225L29.049,8.24z"
		/>
</g>
<g id="Layer_1">
</g>
</svg>
