<?xml version="1.0" encoding="iso-8859-1"?>
<!-- Generator: Adobe Illustrator 16.2.0, SVG Export Plug-In . SVG Version: 6.00 Build 0)  -->
<!DOCTYPE svg PUBLIC "-//W3C//DTD SVG 1.1//EN" "http://www.w3.org/Graphics/SVG/1.1/DTD/svg11.dtd">
<svg version="1.1" xmlns="http://www.w3.org/2000/svg" xmlns:xlink="http://www.w3.org/1999/xlink" x="0px" y="0px" width="30px"
	 height="30px" viewBox="0 0 30 30" style="enable-background:new 0 0 30 30;" xml:space="preserve">
<g id="search">
	<path d="M2.929,12.702c0,4.83,3.916,8.746,8.746,8.746c1.875,0,3.609-0.596,5.033-1.602l7.634,7.634l1.709-1.709l-7.575-7.575
		c1.215-1.503,1.945-3.413,1.945-5.494c0-4.831-3.915-8.746-8.746-8.746C6.845,3.956,2.929,7.871,2.929,12.702z M5.563,12.702
		c0-3.375,2.736-6.111,6.111-6.111c3.375,0,6.111,2.736,6.111,6.111c0,3.374-2.736,6.11-6.111,6.11
		C8.299,18.813,5.563,16.076,5.563,12.702z"/>
</g>
<g id="Layer_1">
</g>
</svg>
