<?xml version="1.0" encoding="iso-8859-1"?>
<!-- Generator: Adobe Illustrator 16.2.0, SVG Export Plug-In . SVG Version: 6.00 Build 0)  -->
<!DOCTYPE svg PUBLIC "-//W3C//DTD SVG 1.1//EN" "http://www.w3.org/Graphics/SVG/1.1/DTD/svg11.dtd">
<svg version="1.1" id="Layer_1" xmlns="http://www.w3.org/2000/svg" xmlns:xlink="http://www.w3.org/1999/xlink" x="0px" y="0px"
	 width="30px" height="30px" viewBox="0 0 30 30" style="enable-background:new 0 0 30 30;" xml:space="preserve">
<g>
	<path d="M8.332,15.672c-0.141-1.196,0.053-2.378,0.54-3.445l-2.695-1.556C5.503,11.966,5.121,13.439,5.121,15
		c0,3.328,1.731,6.251,4.34,7.923l1.57-2.721C9.584,19.178,8.557,17.57,8.332,15.672z"/>
	<path d="M14.528,5.593c-3.329,0-6.252,1.73-7.925,4.34l2.668,1.539c0.126-0.201,0.261-0.397,0.411-0.587
		c1.074-1.363,2.615-2.227,4.338-2.431c2.297-0.271,4.585,0.711,5.972,2.564l-0.683,0.51c-1.206-1.609-3.193-2.464-5.188-2.227
		c-1.498,0.177-2.836,0.927-3.77,2.111c-0.123,0.156-0.236,0.318-0.342,0.485l12.869,7.431c0.674-1.297,1.057-2.768,1.057-4.33
		C23.936,9.804,19.724,5.593,14.528,5.593z"/>
	<path d="M14.693,15.57l-0.009,0.013l-2.5,4.332c0.971,0.506,2.098,0.736,3.264,0.6c0.574-0.068,1.25-0.295,1.788-0.537l0.434,0.75
		c-0.658,0.324-1.37,0.545-2.12,0.635c-0.259,0.031-0.515,0.045-0.769,0.045c-1.081,0-2.11-0.273-3.021-0.756l-1.56,2.701
		c1.296,0.672,2.767,1.055,4.329,1.055c1.663,0,3.225-0.432,4.579-1.189l0.243-0.146c1.251-0.75,2.315-1.777,3.102-3.002
		l-7.744-4.472L14.693,15.57z"/>
	<path d="M11.462,19.459l2.484-4.302l-4.333-2.501c-0.398,0.907-0.555,1.905-0.435,2.916C9.371,17.191,10.239,18.564,11.462,19.459z
		"/>
</g>
</svg>
